<svg width="34" height="29" viewBox="0 0 34 29" fill="none" xmlns="http://www.w3.org/2000/svg">
<path d="M10.4255 13.5334C11.5623 13.5334 12.6525 13.9408 13.4563 14.6659C14.2602 15.3911 14.7117 16.3746 14.7117 17.4001C14.7117 18.4256 14.2602 19.4091 13.4563 20.1342C12.6525 20.8594 11.5623 21.2667 10.4255 21.2667C9.28867 21.2667 8.19844 20.8594 7.3946 20.1342C6.59077 19.4091 6.13918 18.4256 6.13918 17.4001C6.13918 16.3746 6.59077 15.3911 7.3946 14.6659C8.19844 13.9408 9.28867 13.5334 10.4255 13.5334V13.5334ZM10.4255 15.4667C9.85706 15.4667 9.31195 15.6704 8.91003 16.033C8.50811 16.3956 8.28232 16.8873 8.28232 17.4001C8.28232 17.9128 8.50811 18.4046 8.91003 18.7671C9.31195 19.1297 9.85706 19.3334 10.4255 19.3334C10.9939 19.3334 11.539 19.1297 11.9409 18.7671C12.3428 18.4046 12.5686 17.9128 12.5686 17.4001C12.5686 16.8873 12.3428 16.3956 11.9409 16.033C11.539 15.6704 10.9939 15.4667 10.4255 15.4667ZM8.28232 27.0667C8.01443 27.0667 7.7894 26.8927 7.74653 26.6607L7.35005 24.0991C6.67496 23.8574 6.09632 23.5287 5.5391 23.1421L2.87089 24.1184C2.63514 24.1957 2.34582 24.1184 2.21723 23.9057L0.074089 20.5611C0.00850416 20.4615 -0.0146169 20.3437 0.00904961 20.2299C0.0327161 20.116 0.10155 20.0138 0.202678 19.9424L2.46369 18.3377L2.38868 17.4001L2.46369 16.4334L0.202678 14.8577C0.10155 14.7863 0.0327161 14.6841 0.00904961 14.5703C-0.0146169 14.4564 0.00850416 14.3387 0.074089 14.2391L2.21723 10.8944C2.34582 10.6817 2.63514 10.5947 2.87089 10.6817L5.5391 11.6484C6.09632 11.2714 6.67496 10.9427 7.35005 10.7011L7.74653 8.1394C7.7894 7.9074 8.01443 7.7334 8.28232 7.7334H12.5686C12.8365 7.7334 13.0615 7.9074 13.1044 8.1394L13.5009 10.7011C14.176 10.9427 14.7546 11.2714 15.3118 11.6484L17.98 10.6817C18.2158 10.5947 18.5051 10.6817 18.6337 10.8944L20.7768 14.2391C20.9161 14.4517 20.8518 14.7127 20.6482 14.8577L18.3872 16.4334L18.4622 17.4001L18.3872 18.3667L20.6482 19.9424C20.8518 20.0874 20.9161 20.3484 20.7768 20.5611L18.6337 23.9057C18.5051 24.1184 18.2158 24.2054 17.98 24.1184L15.3118 23.1517C14.7546 23.5287 14.176 23.8574 13.5009 24.0991L13.1044 26.6607C13.0615 26.8927 12.8365 27.0667 12.5686 27.0667H8.28232V27.0667ZM9.62178 9.66673L9.2253 12.1897C7.93942 12.4314 6.80355 13.0501 5.97844 13.9104L3.39596 12.9051L2.59228 14.1617L4.85329 15.6601C4.42467 16.7878 4.42467 18.0123 4.85329 19.1401L2.58156 20.6481L3.38524 21.9047L5.98916 20.8994C6.81427 21.7501 7.93942 22.3687 9.21459 22.6007L9.61107 25.1334H11.2399L11.6363 22.6104C12.9115 22.3687 14.0367 21.7501 14.8618 20.8994L17.4657 21.9047L18.2694 20.6481L15.9976 19.1497C16.4263 18.0187 16.4263 16.7911 15.9976 15.6601L18.2586 14.1617L17.455 12.9051L14.8725 13.9104C14.0305 13.031 12.8883 12.4292 11.6256 12.1994L11.2291 9.66673H9.62178V9.66673Z" fill="black"/>
<path d="M25.9631 4.35C26.8394 4.35 27.6798 4.65553 28.2995 5.19939C28.9191 5.74325 29.2673 6.48087 29.2673 7.25C29.2673 8.01913 28.9191 8.75675 28.2995 9.30061C27.6798 9.84447 26.8394 10.15 25.9631 10.15C25.0868 10.15 24.2463 9.84447 23.6267 9.30061C23.007 8.75675 22.6589 8.01913 22.6589 7.25C22.6589 6.48087 23.007 5.74325 23.6267 5.19939C24.2463 4.65553 25.0868 4.35 25.9631 4.35V4.35ZM25.9631 5.8C25.5249 5.8 25.1047 5.95277 24.7949 6.2247C24.4851 6.49662 24.311 6.86544 24.311 7.25C24.311 7.63456 24.4851 8.00338 24.7949 8.2753C25.1047 8.54723 25.5249 8.7 25.9631 8.7C26.4012 8.7 26.8215 8.54723 27.1313 8.2753C27.4411 8.00338 27.6152 7.63456 27.6152 7.25C27.6152 6.86544 27.4411 6.49662 27.1313 6.2247C26.8215 5.95277 26.4012 5.8 25.9631 5.8ZM24.311 14.5C24.1045 14.5 23.931 14.3695 23.898 14.1955L23.5923 12.2743C23.0719 12.093 22.6259 11.8465 22.1963 11.5565L20.1395 12.2888C19.9577 12.3468 19.7347 12.2888 19.6356 12.1293L17.9835 9.62075C17.9329 9.54605 17.9151 9.45774 17.9334 9.37234C17.9516 9.28695 18.0047 9.2103 18.0826 9.15675L19.8256 7.95325L19.7678 7.25L19.8256 6.525L18.0826 5.34325C18.0047 5.2897 17.9516 5.21306 17.9334 5.12766C17.9151 5.04226 17.9329 4.95395 17.9835 4.87925L19.6356 2.37075C19.7347 2.21125 19.9577 2.146 20.1395 2.21125L22.1963 2.93625C22.6259 2.6535 23.0719 2.407 23.5923 2.22575L23.898 0.3045C23.931 0.1305 24.1045 0 24.311 0H27.6152C27.8217 0 27.9952 0.1305 28.0282 0.3045L28.3338 2.22575C28.8542 2.407 29.3003 2.6535 29.7298 2.93625L31.7867 2.21125C31.9684 2.146 32.1915 2.21125 32.2906 2.37075L33.9427 4.87925C34.0501 5.03875 34.0005 5.2345 33.8435 5.34325L32.1006 6.525L32.1584 7.25L32.1006 7.975L33.8435 9.15675C34.0005 9.2655 34.0501 9.46125 33.9427 9.62075L32.2906 12.1293C32.1915 12.2888 31.9684 12.354 31.7867 12.2888L29.7298 11.5638C29.3003 11.8465 28.8542 12.093 28.3338 12.2743L28.0282 14.1955C27.9952 14.3695 27.8217 14.5 27.6152 14.5H24.311V14.5ZM25.3436 1.45L25.0379 3.34225C24.0467 3.5235 23.1711 3.9875 22.535 4.63275L20.5442 3.87875L19.9247 4.82125L21.6677 5.945C21.3372 6.79083 21.3372 7.70917 21.6677 8.555L19.9164 9.686L20.536 10.6285L22.5433 9.8745C23.1793 10.5125 24.0467 10.9765 25.0297 11.1505L25.3353 13.05H26.5909L26.8965 11.1577C27.8795 10.9765 28.7469 10.5125 29.3829 9.8745L31.3902 10.6285L32.0097 9.686L30.2585 8.56225C30.5889 7.714 30.5889 6.79325 30.2585 5.945L32.0015 4.82125L31.3819 3.87875L29.3912 4.63275C28.7421 3.97323 27.8616 3.52181 26.8883 3.3495L26.5826 1.45H25.3436V1.45Z" fill="black"/>
<path d="M26.4989 22.233C27.0831 22.233 27.6434 22.4367 28.0565 22.7993C28.4696 23.1618 28.7017 23.6536 28.7017 24.1663C28.7017 24.6791 28.4696 25.1708 28.0565 25.5334C27.6434 25.896 27.0831 26.0997 26.4989 26.0997C25.9147 26.0997 25.3544 25.896 24.9413 25.5334C24.5282 25.1708 24.2961 24.6791 24.2961 24.1663C24.2961 23.6536 24.5282 23.1618 24.9413 22.7993C25.3544 22.4367 25.9147 22.233 26.4989 22.233V22.233ZM26.4989 23.1997C26.2068 23.1997 25.9267 23.3015 25.7201 23.4828C25.5136 23.6641 25.3975 23.91 25.3975 24.1663C25.3975 24.4227 25.5136 24.6686 25.7201 24.8499C25.9267 25.0312 26.2068 25.133 26.4989 25.133C26.791 25.133 27.0712 25.0312 27.2777 24.8499C27.4843 24.6686 27.6003 24.4227 27.6003 24.1663C27.6003 23.91 27.4843 23.6641 27.2777 23.4828C27.0712 23.3015 26.791 23.1997 26.4989 23.1997ZM25.3975 28.9997C25.2598 28.9997 25.1442 28.9127 25.1222 28.7967L24.9184 27.5158C24.5715 27.395 24.2741 27.2307 23.9877 27.0373L22.6165 27.5255C22.4954 27.5642 22.3467 27.5255 22.2806 27.4192L21.1792 25.7468C21.1455 25.697 21.1336 25.6382 21.1458 25.5812C21.1579 25.5243 21.1933 25.4732 21.2453 25.4375L22.4072 24.6352L22.3687 24.1663L22.4072 23.683L21.2453 22.8952C21.1933 22.8595 21.1579 22.8084 21.1458 22.7514C21.1336 22.6945 21.1455 22.6356 21.1792 22.5858L22.2806 20.9135C22.3467 20.8072 22.4954 20.7637 22.6165 20.8072L23.9877 21.2905C24.2741 21.102 24.5715 20.9377 24.9184 20.8168L25.1222 19.536C25.1442 19.42 25.2598 19.333 25.3975 19.333H27.6003C27.738 19.333 27.8536 19.42 27.8757 19.536L28.0794 20.8168C28.4264 20.9377 28.7237 21.102 29.0101 21.2905L30.3813 20.8072C30.5025 20.7637 30.6512 20.8072 30.7173 20.9135L31.8186 22.5858C31.8902 22.6922 31.8572 22.8227 31.7526 22.8952L30.5906 23.683L30.6291 24.1663L30.5906 24.6497L31.7526 25.4375C31.8572 25.51 31.8902 25.6405 31.8186 25.7468L30.7173 27.4192C30.6512 27.5255 30.5025 27.569 30.3813 27.5255L29.0101 27.0422C28.7237 27.2307 28.4264 27.395 28.0794 27.5158L27.8757 28.7967C27.8536 28.9127 27.738 28.9997 27.6003 28.9997H25.3975V28.9997ZM26.0859 20.2997L25.8821 21.5612C25.2213 21.682 24.6376 21.9913 24.2135 22.4215L22.8863 21.9188L22.4733 22.5472L23.6353 23.2963C23.415 23.8602 23.415 24.4725 23.6353 25.0363L22.4678 25.7903L22.8808 26.4187L24.219 25.916C24.6431 26.3413 25.2213 26.6507 25.8766 26.7667L26.0804 28.033H26.9174L27.1212 26.7715C27.7765 26.6507 28.3548 26.3413 28.7788 25.916L30.117 26.4187L30.53 25.7903L29.3625 25.0412C29.5828 24.4757 29.5828 23.8618 29.3625 23.2963L30.5245 22.5472L30.1115 21.9188L28.7843 22.4215C28.3516 21.9818 27.7646 21.6809 27.1157 21.566L26.9119 20.2997H26.0859V20.2997Z" fill="black"/>
</svg>
