<svg width="6" height="5" viewBox="0 0 6 5" fill="none" xmlns="http://www.w3.org/2000/svg">
<path d="M1.83979 2.33301C2.0404 2.33301 2.23279 2.40325 2.37464 2.52827C2.5165 2.65329 2.59619 2.82286 2.59619 2.99967C2.59619 3.17649 2.5165 3.34605 2.37464 3.47108C2.23279 3.5961 2.0404 3.66634 1.83979 3.66634C1.63918 3.66634 1.44678 3.5961 1.30493 3.47108C1.16308 3.34605 1.08338 3.17649 1.08338 2.99967C1.08338 2.82286 1.16308 2.65329 1.30493 2.52827C1.44678 2.40325 1.63918 2.33301 1.83979 2.33301V2.33301ZM1.83979 2.66634C1.73948 2.66634 1.64329 2.70146 1.57236 2.76397C1.50143 2.82648 1.46159 2.91127 1.46159 2.99967C1.46159 3.08808 1.50143 3.17286 1.57236 3.23538C1.64329 3.29789 1.73948 3.33301 1.83979 3.33301C1.94009 3.33301 2.03629 3.29789 2.10722 3.23538C2.17814 3.17286 2.21799 3.08808 2.21799 2.99967C2.21799 2.91127 2.17814 2.82648 2.10722 2.76397C2.03629 2.70146 1.94009 2.66634 1.83979 2.66634ZM1.46159 4.66634C1.41431 4.66634 1.3746 4.63634 1.36704 4.59634L1.29707 4.15467C1.17793 4.11301 1.07582 4.05634 0.977488 3.98967L0.506627 4.15801C0.465025 4.17134 0.413968 4.15801 0.391276 4.12134L0.0130745 3.54467C0.00150073 3.5275 -0.00257945 3.5072 0.00159699 3.48757C0.00577344 3.46794 0.0179205 3.45032 0.0357666 3.43801L0.434769 3.16134L0.421532 2.99967L0.434769 2.83301L0.0357666 2.56134C0.0179205 2.54903 0.00577344 2.53141 0.00159699 2.51178C-0.00257945 2.49215 0.00150073 2.47185 0.0130745 2.45467L0.391276 1.87801C0.413968 1.84134 0.465025 1.82634 0.506627 1.84134L0.977488 2.00801C1.07582 1.94301 1.17793 1.88634 1.29707 1.84467L1.36704 1.40301C1.3746 1.36301 1.41431 1.33301 1.46159 1.33301H2.21799C2.26526 1.33301 2.30497 1.36301 2.31254 1.40301L2.38251 1.84467C2.50164 1.88634 2.60375 1.94301 2.70209 2.00801L3.17295 1.84134C3.21455 1.82634 3.26561 1.84134 3.2883 1.87801L3.6665 2.45467C3.69108 2.49134 3.67974 2.53634 3.64381 2.56134L3.24481 2.83301L3.25804 2.99967L3.24481 3.16634L3.64381 3.43801C3.67974 3.46301 3.69108 3.50801 3.6665 3.54467L3.2883 4.12134C3.26561 4.15801 3.21455 4.17301 3.17295 4.15801L2.70209 3.99134C2.60375 4.05634 2.50164 4.11301 2.38251 4.15467L2.31254 4.59634C2.30497 4.63634 2.26526 4.66634 2.21799 4.66634H1.46159V4.66634ZM1.69796 1.66634L1.62799 2.10134C1.40107 2.14301 1.20063 2.24967 1.05502 2.39801L0.599287 2.22467L0.457461 2.44134L0.856464 2.69967C0.780823 2.89412 0.780823 3.10523 0.856464 3.29967L0.45557 3.55967L0.597396 3.77634L1.05691 3.60301C1.20252 3.74967 1.40107 3.85634 1.6261 3.89634L1.69607 4.33301H1.9835L2.05347 3.89801C2.2785 3.85634 2.47706 3.74967 2.62266 3.60301L3.08218 3.77634L3.224 3.55967L2.82311 3.30134C2.89875 3.10634 2.89875 2.89467 2.82311 2.69967L3.22211 2.44134L3.08029 2.22467L2.62456 2.39801C2.47596 2.24639 2.2744 2.14262 2.05158 2.10301L1.98161 1.66634H1.69796V1.66634Z" fill="black"/>
<path d="M4.58175 0.75C4.7364 0.75 4.88471 0.802678 4.99406 0.896447C5.10341 0.990215 5.16484 1.11739 5.16484 1.25C5.16484 1.38261 5.10341 1.50979 4.99406 1.60355C4.88471 1.69732 4.7364 1.75 4.58175 1.75C4.42711 1.75 4.2788 1.69732 4.16945 1.60355C4.0601 1.50979 3.99866 1.38261 3.99866 1.25C3.99866 1.11739 4.0601 0.990215 4.16945 0.896447C4.2788 0.802678 4.42711 0.75 4.58175 0.75V0.75ZM4.58175 1C4.50443 1 4.43028 1.02634 4.3756 1.07322C4.32092 1.12011 4.29021 1.1837 4.29021 1.25C4.29021 1.3163 4.32092 1.37989 4.3756 1.42678C4.43028 1.47366 4.50443 1.5 4.58175 1.5C4.65908 1.5 4.73323 1.47366 4.78791 1.42678C4.84258 1.37989 4.8733 1.3163 4.8733 1.25C4.8733 1.1837 4.84258 1.12011 4.78791 1.07322C4.73323 1.02634 4.65908 1 4.58175 1ZM4.29021 2.5C4.25377 2.5 4.22315 2.4775 4.21732 2.4475L4.16339 2.11625C4.07155 2.085 3.99283 2.0425 3.91703 1.9925L3.55406 2.11875C3.52199 2.12875 3.48263 2.11875 3.46514 2.09125L3.17359 1.65875C3.16467 1.64587 3.16152 1.63065 3.16474 1.61592C3.16796 1.6012 3.17733 1.58798 3.19108 1.57875L3.49866 1.37125L3.48846 1.25L3.49866 1.125L3.19108 0.92125C3.17733 0.912017 3.16796 0.898803 3.16474 0.884079C3.16152 0.869355 3.16467 0.85413 3.17359 0.84125L3.46514 0.40875C3.48263 0.38125 3.52199 0.37 3.55406 0.38125L3.91703 0.50625C3.99283 0.4575 4.07155 0.415 4.16339 0.38375L4.21732 0.0525C4.22315 0.0225 4.25377 0 4.29021 0H4.8733C4.90974 0 4.94035 0.0225 4.94618 0.0525L5.00012 0.38375C5.09196 0.415 5.17067 0.4575 5.24648 0.50625L5.60945 0.38125C5.64152 0.37 5.68088 0.38125 5.69837 0.40875L5.98991 0.84125C6.00887 0.86875 6.00012 0.9025 5.97242 0.92125L5.66484 1.125L5.67505 1.25L5.66484 1.375L5.97242 1.57875C6.00012 1.5975 6.00887 1.63125 5.98991 1.65875L5.69837 2.09125C5.68088 2.11875 5.64152 2.13 5.60945 2.11875L5.24648 1.99375C5.17067 2.0425 5.09196 2.085 5.00012 2.11625L4.94618 2.4475C4.94035 2.4775 4.90974 2.5 4.8733 2.5H4.29021V2.5ZM4.47242 0.25L4.41849 0.57625C4.24356 0.6075 4.08904 0.6875 3.9768 0.79875L3.62549 0.66875L3.51616 0.83125L3.82374 1.025C3.76543 1.17083 3.76543 1.32917 3.82374 1.475L3.5147 1.67L3.62403 1.8325L3.97826 1.7025C4.0905 1.8125 4.24356 1.8925 4.41703 1.9225L4.47097 2.25H4.69254L4.74648 1.92375C4.91995 1.8925 5.07301 1.8125 5.18525 1.7025L5.53948 1.8325L5.64881 1.67L5.33977 1.47625C5.39808 1.33 5.39808 1.17125 5.33977 1.025L5.64735 0.83125L5.53802 0.66875L5.18671 0.79875C5.07216 0.68504 4.91679 0.607209 4.74502 0.5775L4.69108 0.25H4.47242V0.25Z" fill="black"/>
<path d="M4.67627 3.83301C4.77937 3.83301 4.87824 3.86813 4.95114 3.93064C5.02404 3.99315 5.065 4.07794 5.065 4.16634C5.065 4.25475 5.02404 4.33953 4.95114 4.40204C4.87824 4.46456 4.77937 4.49967 4.67627 4.49967C4.57317 4.49967 4.4743 4.46456 4.4014 4.40204C4.3285 4.33953 4.28754 4.25475 4.28754 4.16634C4.28754 4.07794 4.3285 3.99315 4.4014 3.93064C4.4743 3.86813 4.57317 3.83301 4.67627 3.83301V3.83301ZM4.67627 3.99967C4.62472 3.99967 4.57528 4.01723 4.53883 4.04849C4.50238 4.07975 4.48191 4.12214 4.48191 4.16634C4.48191 4.21054 4.50238 4.25294 4.53883 4.28419C4.57528 4.31545 4.62472 4.33301 4.67627 4.33301C4.72782 4.33301 4.77725 4.31545 4.8137 4.28419C4.85015 4.25294 4.87063 4.21054 4.87063 4.16634C4.87063 4.12214 4.85015 4.07975 4.8137 4.04849C4.77725 4.01723 4.72782 3.99967 4.67627 3.99967ZM4.48191 4.99967C4.45761 4.99967 4.4372 4.98467 4.43331 4.96467L4.39736 4.74384C4.33613 4.72301 4.28365 4.69467 4.23312 4.66134L3.99114 4.74551C3.96976 4.75217 3.94352 4.74551 3.93186 4.72717L3.73749 4.43884C3.73155 4.43025 3.72945 4.4201 3.73159 4.41029C3.73374 4.40047 3.73998 4.39166 3.74915 4.38551L3.95421 4.24717L3.94741 4.16634L3.95421 4.08301L3.74915 3.94717C3.73998 3.94102 3.73374 3.93221 3.73159 3.92239C3.72945 3.91258 3.73155 3.90243 3.73749 3.89384L3.93186 3.60551C3.94352 3.58717 3.96976 3.57967 3.99114 3.58717L4.23312 3.67051C4.28365 3.63801 4.33613 3.60967 4.39736 3.58884L4.43331 3.36801C4.4372 3.34801 4.45761 3.33301 4.48191 3.33301H4.87063C4.89493 3.33301 4.91534 3.34801 4.91922 3.36801L4.95518 3.58884C5.0164 3.60967 5.06888 3.63801 5.11942 3.67051L5.3614 3.58717C5.38278 3.57967 5.40902 3.58717 5.42068 3.60551L5.61504 3.89384C5.62768 3.91217 5.62185 3.93467 5.60338 3.94717L5.39833 4.08301L5.40513 4.16634L5.39833 4.24967L5.60338 4.38551C5.62185 4.39801 5.62768 4.42051 5.61504 4.43884L5.42068 4.72717C5.40902 4.74551 5.38278 4.75301 5.3614 4.74551L5.11942 4.66217C5.06888 4.69467 5.0164 4.72301 4.95518 4.74384L4.91922 4.96467C4.91534 4.98467 4.89493 4.99967 4.87063 4.99967H4.48191V4.99967ZM4.60338 3.49967L4.56743 3.71717C4.45081 3.73801 4.34779 3.79134 4.27296 3.86551L4.03876 3.77884L3.96587 3.88717L4.17092 4.01634C4.13205 4.11356 4.13205 4.21912 4.17092 4.31634L3.9649 4.44634L4.03778 4.55467L4.27394 4.46801C4.34877 4.54134 4.45081 4.59467 4.56645 4.61467L4.60241 4.83301H4.75013L4.78608 4.61551C4.90173 4.59467 5.00377 4.54134 5.0786 4.46801L5.31475 4.55467L5.38764 4.44634L5.18161 4.31717C5.22049 4.21967 5.22049 4.11384 5.18161 4.01634L5.38667 3.88717L5.31378 3.77884L5.07957 3.86551C5.00321 3.7897 4.89962 3.73781 4.78511 3.71801L4.74916 3.49967H4.60338V3.49967Z" fill="black"/>
</svg>
