<svg width="15" height="8" viewBox="0 0 15 8" fill="none" xmlns="http://www.w3.org/2000/svg">
<path d="M5 0V1H6V2H3.281L2.422 0.7185L2.265 0.5H0V3.344L2.5 4.344V8H9.7655L9.9065 7.781L14.25 1.5H15V0.5H13.328L13.203 0.594L10 3V2H7V1H8V0H5ZM1 1.5H1.719L2.5 2.672V3.25L1 2.656V1.5ZM12.3905 2.469L9.25 7H3.5V3H9V5L9.797 4.406L12.3905 2.469ZM14.25 3.5C14.25 3.5 13.5 4.836 13.5 5.25C13.5 5.44891 13.579 5.63968 13.7197 5.78033C13.8603 5.92098 14.0511 6 14.25 6C14.4489 6 14.6397 5.92098 14.7803 5.78033C14.921 5.63968 15 5.44891 15 5.25C15 4.836 14.25 3.5 14.25 3.5Z" fill="black"/>
</svg>
