<svg width="9" height="5" viewBox="0 0 9 5" fill="none" xmlns="http://www.w3.org/2000/svg">
<path d="M3 0V0.625H3.6V1.25H1.9686L1.4532 0.449063L1.359 0.3125H0V2.09L1.5 2.715V5H5.8593L5.9439 4.86313L8.55 0.9375H9V0.3125H7.9968L7.9218 0.37125L6 1.875V1.25H4.2V0.625H4.8V0H3ZM0.6 0.9375H1.0314L1.5 1.67V2.03125L0.6 1.66V0.9375ZM7.4343 1.54312L5.55 4.375H2.1V1.875H5.4V3.125L5.8782 2.75375L7.4343 1.54312ZM8.55 2.1875C8.55 2.1875 8.1 3.0225 8.1 3.28125C8.1 3.40557 8.14741 3.5248 8.2318 3.61271C8.31619 3.70061 8.43065 3.75 8.55 3.75C8.66935 3.75 8.78381 3.70061 8.8682 3.61271C8.95259 3.5248 9 3.40557 9 3.28125C9 3.0225 8.55 2.1875 8.55 2.1875Z" fill="black"/>
</svg>
